<svg xmlns="http://www.w3.org/2000/svg" height="36" width="68"><g class="currentLayer"><g><path fill="none" stroke="#fff" opacity=".5" stroke-width="1.2" d="M35.707 35.357l-17.512.071h0C8.523 35.467.655 27.702.624 18.165.59 8.468 8.406.72 18.078.681l17.513-.07M35.592.602L51.63.572h.03c8.776 0 15.716 7.746 15.716 17.364 0 9.617-7.02 17.413-15.796 17.413l-15.873.008" color="#000"/></g><g class="Plane" fill="#fff"><path d="M59.752 20.4l-18 3.6c.5-1.3.7-2.7.7-4 0-.7-.1-1.4-.2-2.1h5.1c.6 0 1-.4 1-1s-.4-1-1-1h-5.7c-1.2-2.7-3.7-4.7-6.6-5.1V6.4c0-.6-.4-1-1-1s-1 .4-1 1v4.4c-2.9.4-5.3 2.4-6.6 5.1h-5.8c-.6 0-1 .4-1 1s.4 1 1 1h5.1c-.1.7-.2 1.4-.2 2.1 0 1.3.3 2.7.7 4.1l-18-3.7c-.5-.1-1.1.2-1.2.8-.1.5.2 1.1.8 1.2l7.5 1.5c-.5.6-.7 1.3-.7 2.1 0 1.9 1.5 3.4 3.4 3.4s3.4-1.5 3.4-3.4c0-.3-.1-.6-.1-.9l6.1 1.2c1.5 2.5 3.9 4.3 6.6 4.3 2.8 0 5.1-1.8 6.6-4.3l5.7-1.1c-.1.3-.1.6-.1.9 0 1.9 1.5 3.4 3.4 3.4s3.4-1.5 3.4-3.4c0-.8-.3-1.5-.7-2l7.8-1.6c.5-.1.9-.6.8-1.2-.1-.6-.6-1-1.2-.9zm-41.7 7c-.8 0-1.4-.6-1.4-1.4s.6-1.4 1.4-1.4 1.4.6 1.4 1.4-.7 1.4-1.4 1.4zm15.9 1.2c-3.6 0-6.5-4.7-6.5-8.6 0-4 2.9-7.2 6.5-7.2s6.5 3.2 6.5 7.2c0 3.9-2.9 8.6-6.5 8.6zm15.7-1.2c-.8 0-1.4-.6-1.4-1.4s.6-1.4 1.4-1.4 1.4.6 1.4 1.4-.6 1.4-1.4 1.4z"/><path d="M33.983 16.035c-2.8 0-4.8 1.2-4.8 2.8 0 1.6 2 2.8 4.8 2.8s4.8-1.2 4.8-2.8c0-1.6-2-2.8-4.8-2.8zm0 3.6c-1.7 0-2.7-.6-2.8-.8.1-.2 1.1-.8 2.8-.8s2.7.6 2.8.8c-.1.2-1 .8-2.8.8z"/></g></g></svg>