<svg xmlns="http://www.w3.org/2000/svg" xmlns:xlink="http://www.w3.org/1999/xlink" height="100%" width="100%" fill="#000" version="1.1" viewBox="-1 0 90 42">
<g class="currentLayer"><title>Layer 1</title>
        <g class="Frame" id="svg_2">
            <path fill="none" stroke="#fff" opacity="0.5" stroke-width="1.2" fill-rule="nonzero" marker-start="" marker-mid="" marker-end="" id="svg_14" d="M0.07687848797564834, 0.09708197869917967 L23.2197405826293, 0.09708197869917967 L23.2197405826293,0.09708197869917967 C36.00118939640322,0.09708197869917967 46.36260267728301,9.49909115389471 46.36260267728301,21 C46.36260267728301,32.69506738987212 36.00118939640322,42 23.2197405826293,42 L0.07687848797564834,42 " style="color: rgb(0, 0, 0);" class="" filter="" transform="rotate(179.78985595703125 23.219734191894535,21) "/>
            <path fill="none" stroke="#fff" opacity="0.5" stroke-width="1.2" fill-rule="nonzero" d="M46.12541579697219, 8.665649886552274e-8 L67.12541799137514,8.665649886552274e-8 L67.12541799137514,8.665649886552274e-8 C78.72340067982066,8.665649886552274e-8 88, 9.402021002009775 88, 21 C88,32.59798496950535 78.72340067982066,42 67.12541799137514,42 L46.12541579697219,42 " style="color: rgb(0, 0, 0);" class="" id="svg_3"/>
        </g>
        <g class="Plane" id="svg_6" fill="#fff" fill-opacity="1" stroke="none">
            <path d="M71.01345611810683,23.20106014013291 l-18,3.6 c0.5,-1.3 0.7000000000000006,-2.7 0.7000000000000006,-4 c0,-0.7000000000000006 -0.1,-1.4 -0.2,-2.1 h5.1 c0.6000000000000006,0 1,-0.4 1,-1 s-0.4,-1 -1,-1 h-5.7 c-1.2,-2.7 -3.7,-4.7 -6.6,-5.1 v-4.4 c0,-0.6000000000000006 -0.4,-1 -1,-1 s-1,0.4 -1,1 v4.4 c-2.9,0.4 -5.3,2.4 -6.6,5.1 h-5.8 c-0.6000000000000006,0 -1,0.4 -1,1 s0.4,1 1,1 h5.1 c-0.1,0.7000000000000006 -0.2,1.4 -0.2,2.1 c0,1.3 0.3000000000000003,2.7 0.7000000000000006,4.1 L19.51345611810683,23.20106014013291 c-0.5,-0.1 -1.1,0.2 -1.2,0.8 c-0.1,0.5 0.2,1.1 0.8,1.2 l7.5,1.5 c-0.5,0.6000000000000006 -0.7000000000000006,1.3 -0.7000000000000006,2.1 c0,1.9 1.5,3.4 3.4,3.4 s3.4,-1.5 3.4,-3.4 c0,-0.3000000000000003 -0.1,-0.6000000000000006 -0.1,-0.9 l6.1,1.2 c1.5,2.5 3.9,4.3 6.6,4.3 c2.8,0 5.1,-1.8 6.6,-4.3 l5.7,-1.1 c-0.1,0.3000000000000003 -0.1,0.6000000000000006 -0.1,0.9 c0,1.9 1.5,3.4 3.4,3.4 s3.4,-1.5 3.4,-3.4 c0,-0.8 -0.3000000000000003,-1.5 -0.7000000000000006,-2 l7.8,-1.6 c0.5,-0.1 0.9,-0.6000000000000006 0.8,-1.2 C72.11345611810685,23.501060140132907 71.61345611810685,23.1010601401329 71.01345611810683,23.20106014013291 zM29.313456118106842,30.20106014013291 c-0.8,0 -1.4,-0.6000000000000006 -1.4,-1.4 s0.6000000000000006,-1.4 1.4,-1.4 s1.4,0.6000000000000006 1.4,1.4 S30.01345611810683,30.20106014013291 29.313456118106842,30.20106014013291 zM45.21345611810685,31.4010601401329 c-3.6,0 -6.5,-4.7 -6.5,-8.6 c0,-4 2.9,-7.2 6.5,-7.2 s6.5,3.2 6.5,7.2 C51.71345611810685,26.70106014013291 48.81345611810684,31.4010601401329 45.21345611810685,31.4010601401329 zM60.913456118106836,30.20106014013291 c-0.8,0 -1.4,-0.6000000000000006 -1.4,-1.4 s0.6000000000000006,-1.4 1.4,-1.4 s1.4,0.6000000000000006 1.4,1.4 S61.71345611810685,30.20106014013291 60.913456118106836,30.20106014013291 z" class="" id="svg_1" fill="#fff" fill-opacity="1" stroke="none" stroke-opacity="1"/>
            <path d="M45.24470611810685,18.835881543159488 c-2.8,0 -4.8,1.2 -4.8,2.8 c0,1.6 2,2.8 4.8,2.8 s4.8,-1.2 4.8,-2.8 C50.04470611810683,20.03588154315949 48.04470611810683,18.835881543159488 45.24470611810685,18.835881543159488 zM45.24470611810685,22.435881543159482 c-1.7000000000000002,0 -2.7,-0.6000000000000006 -2.8,-0.8 c0.1,-0.2 1.1,-0.8 2.8,-0.8 s2.7,0.6000000000000006 2.8,0.8 C47.944706118106836,21.835881543159488 47.04470611810683,22.435881543159482 45.24470611810685,22.435881543159482 z" class="" id="svg_5" fill="#fff" fill-opacity="1" stroke="none" stroke-opacity="1"/>
        </g>
    </g>
</svg>