<svg xmlns="http://www.w3.org/2000/svg" xmlns:xlink="http://www.w3.org/1999/xlink" height="36" width="68" version="1.1">
<g class="currentLayer"><title>Layer 1</title>
        <g class="">
            <path fill="none" stroke="#fff" opacity="0.5" stroke-width="1.2" fill-rule="nonzero" marker-start="" marker-mid="" marker-end="" id="svg_14" d="M35.70665752811432,35.35677152021408 L18.19473752811432,35.42816152021408 L18.19473752811432,35.42816152021408 C8.522627528114318,35.46703152021408 0.6557275281143193,27.70217152021408 0.623807528114319,18.16535152021408 C0.5913475281143192,8.467521520214081 8.40632752811432,0.7201415202140812 18.078437528114318,0.6812715202140813 L35.59135752811432,0.6108815202140812 " style="color: rgb(0, 0, 0);" class="" filter="" fill-opacity="1" />
            <path fill="none" stroke="#fff" opacity="0.5" stroke-width="1.2" fill-rule="nonzero" d="M35.591537528114316,0.601901520214081 L51.62975752811432,0.5716915202140813 L51.65975752811432,0.5716915202140813 C60.43636752811432,0.5716915202140813 67.37629752811432,8.318121520214081 67.37629752811432,17.93551152021408 C67.37629752811432,27.552891520214082 60.35636752811432,35.34932152021408 51.57975752811432,35.34932152021408 L35.707247528114316,35.35732152021408 " style="color: rgb(0, 0, 0);" class="" id="svg_3" fill-opacity="1" />
        </g>
        <g class="Plane" id="svg_6" fill="#fff" fill-opacity="1" stroke="none">
            <path d="M59.7517622232437,20.399998509883886 l-18,3.6 c0.5,-1.3 0.7000000000000006,-2.7 0.7000000000000006,-4 c0,-0.7000000000000006 -0.1,-1.4 -0.2,-2.1 h5.1 c0.6000000000000006,0 1,-0.4 1,-1 s-0.4,-1 -1,-1 h-5.7 c-1.2,-2.7 -3.7,-4.7 -6.6,-5.1 v-4.4 c0,-0.6000000000000006 -0.4,-1 -1,-1 s-1,0.4 -1,1 v4.4 c-2.9,0.4 -5.3,2.4 -6.6,5.1 h-5.8 c-0.6000000000000006,0 -1,0.4 -1,1 s0.4,1 1,1 h5.1 c-0.1,0.7000000000000006 -0.2,1.4 -0.2,2.1 c0,1.3 0.3000000000000003,2.7 0.7000000000000006,4.1 L8.251762223243702,20.399998509883886 c-0.5,-0.1 -1.1,0.2 -1.2,0.8 c-0.1,0.5 0.2,1.1 0.8,1.2 l7.5,1.5 c-0.5,0.6000000000000006 -0.7000000000000006,1.3 -0.7000000000000006,2.1 c0,1.9 1.5,3.4 3.4,3.4 s3.4,-1.5 3.4,-3.4 c0,-0.3000000000000003 -0.1,-0.6000000000000006 -0.1,-0.9 l6.1,1.2 c1.5,2.5 3.9,4.3 6.6,4.3 c2.8,0 5.1,-1.8 6.6,-4.3 l5.7,-1.1 c-0.1,0.3000000000000003 -0.1,0.6000000000000006 -0.1,0.9 c0,1.9 1.5,3.4 3.4,3.4 s3.4,-1.5 3.4,-3.4 c0,-0.8 -0.3000000000000003,-1.5 -0.7000000000000006,-2 l7.8,-1.6 c0.5,-0.1 0.9,-0.6000000000000006 0.8,-1.2 C60.851762223243725,20.699998509883883 60.351762223243725,20.299998509883878 59.7517622232437,20.399998509883886 zM18.051762223243713,27.399998509883886 c-0.8,0 -1.4,-0.6000000000000006 -1.4,-1.4 s0.6000000000000006,-1.4 1.4,-1.4 s1.4,0.6000000000000006 1.4,1.4 S18.751762223243702,27.399998509883886 18.051762223243713,27.399998509883886 zM33.95176222324372,28.599998509883875 c-3.6,0 -6.5,-4.7 -6.5,-8.6 c0,-4 2.9,-7.2 6.5,-7.2 s6.5,3.2 6.5,7.2 C40.45176222324372,23.899998509883886 37.55176222324371,28.599998509883875 33.95176222324372,28.599998509883875 zM49.65176222324371,27.399998509883886 c-0.8,0 -1.4,-0.6000000000000006 -1.4,-1.4 s0.6000000000000006,-1.4 1.4,-1.4 s1.4,0.6000000000000006 1.4,1.4 S50.45176222324372,27.399998509883886 49.65176222324371,27.399998509883886 z" class="" id="svg_1" fill="#fff" fill-opacity="1" stroke="none" stroke-opacity="1"/>
            <path d="M33.98301222324372,16.034819912910464 c-2.8,0 -4.8,1.2 -4.8,2.8 c0,1.6 2,2.8 4.8,2.8 s4.8,-1.2 4.8,-2.8 C38.7830122232437,17.234819912910467 36.7830122232437,16.034819912910464 33.98301222324372,16.034819912910464 zM33.98301222324372,19.63481991291046 c-1.7000000000000002,0 -2.7,-0.6000000000000006 -2.8,-0.8 c0.1,-0.2 1.1,-0.8 2.8,-0.8 s2.7,0.6000000000000006 2.8,0.8 C36.68301222324371,19.034819912910464 35.7830122232437,19.63481991291046 33.98301222324372,19.63481991291046 z" class="" id="svg_5" fill="#fff" fill-opacity="1" stroke="none" stroke-opacity="1"/>
        </g>
    </g>
</svg>